<?xml version="1.0" encoding="UTF-8" standalone="no"?>
<svg
   xmlns:dc="http://purl.org/dc/elements/1.1/"
   xmlns:cc="http://creativecommons.org/ns#"
   xmlns:rdf="http://www.w3.org/1999/02/22-rdf-syntax-ns#"
   xmlns:svg="http://www.w3.org/2000/svg"
   xmlns="http://www.w3.org/2000/svg"
   height="119.99999"
   width="540"
   xml:space="preserve"
   viewBox="0 0 540 119.99999"
   y="0px"
   x="0px"
   id="Ebene_1"
   version="1.1"><metadata
     id="metadata22"><rdf:RDF><cc:Work
         rdf:about=""><dc:format>image/svg+xml</dc:format><dc:type
           rdf:resource="http://purl.org/dc/dcmitype/StillImage" /><dc:title>ONEOFF</dc:title></cc:Work></rdf:RDF></metadata><defs
     id="defs20" /><style
     id="style2"
     type="text/css">
	.st0{fill:#143C78;}
</style><g
     transform="matrix(4,0,0,4,-365.2,-639.99996)"
     id="XMLID_14_" /><title
     id="title5">ONEOFF</title><desc
     id="desc7">Created with Sketch.</desc><g
     transform="matrix(1.1233618,0,0,1.0968921,-102.56293,-88.409503)"
     id="XMLID_2_"><path
       style="fill:#f9f9f9"
       d="m 492.9,95.3 h -44 c -4.8,0 -8.7,3.9 -8.7,8.7 v 61.9 c 0,4.8 3.9,8.6 8.7,8.6 4.8,0 8.7,-3.8 8.7,-8.6 v -22.5 h 30.2 c 4.4,0 7.9,-3.5 7.9,-7.9 0,-4.4 -3.5,-7.9 -7.9,-7.9 H 457.6 V 111 h 35.2 c 4.4,0 7.9,-3.5 7.9,-7.9 0,-4.3 -3.5,-7.8 -7.8,-7.8 z"
       class="st0"
       id="XMLID_13_" /><path
       style="fill:#f9f9f9"
       d="m 564.1,111 c 4.4,0 7.9,-3.5 7.9,-7.9 0,-4.4 -3.5,-7.9 -7.9,-7.9 h -44 c -4.8,0 -8.4,3.9 -8.4,8.7 v 61.9 c 0,4.8 3.7,8.6 8.5,8.6 4.8,0 8.5,-3.8 8.5,-8.6 V 143.3 H 559 c 4.4,0 7.9,-3.5 7.9,-7.9 0,-4.4 -3.5,-7.9 -7.9,-7.9 H 528.7 V 111 Z"
       class="st0"
       id="XMLID_12_" /><path
       style="fill:#f9f9f9"
       d="m 386.6,94 c -21.6,0 -38.1,14.6 -41.3,33.6 h -14.9 c -3.9,0.1 -7,3.3 -7,7.2 0,3.9 3.1,7.1 7,7.2 h 14.9 c 3.3,18.9 19.5,33.1 41.1,33.1 24.2,0 41.9,-18.3 41.9,-40.6 0,-22.4 -17.5,-40.5 -41.7,-40.5 z m 23.4,40.8 c 0,13.5 -9.6,24.5 -23.5,24.5 -11.2,0 -19.8,-7.3 -22.7,-17.2 h 22.7 c 4,0 7.3,-3.1 7.3,-7.2 0,-4 -3.3,-7.3 -7.3,-7.3 h -22.9 c 2.6,-10.2 11.2,-17.7 22.7,-17.7 13.9,0 23.7,11.2 23.7,24.7 z"
       class="st0"
       id="XMLID_9_" /><path
       style="fill:#f9f9f9"
       d="m 342.5,80.7 -10.8,16 c -11.7,0 -49.1,-0.1 -49.3,-0.1 -3.8,0.2 -6.8,3.4 -6.8,7.2 0,4 3.2,7.2 7.2,7.2 0.1,0 29.7,0 39.1,0 l -11.1,16.4 c -8.6,0 -28.1,0 -28.2,0 h -0.2 v -0.1 c -3.8,0.1 -7,3.3 -7,7.2 0,3.9 3.1,7.1 7,7.2 H 301 l -11.7,17.4 h -6.5 c -4,0 -7.3,3.2 -7.3,7.2 0,3 1.9,5.6 4.5,6.7 l -11.4,17 h 1 L 343.3,80.6 h -0.8 z"
       class="st0"
       id="XMLID_8_" /><path
       style="fill:#f9f9f9"
       d="m 133.1,94 c -24.2,0 -41.8,18.3 -41.8,40.6 v 0.2 c 0,22.3 17.4,40.4 41.6,40.4 24.2,0 41.8,-18.3 41.8,-40.6 v -0.2 C 174.7,112.1 157.3,94 133.1,94 Z m 23.7,40.8 c 0,13.5 -9.8,24.5 -23.7,24.5 -13.9,0 -23.9,-11.2 -23.9,-24.7 v -0.2 c 0,-13.5 9.8,-24.5 23.7,-24.5 13.9,0 23.9,11.2 23.9,24.7 z"
       class="st0"
       id="XMLID_5_" /><circle
       style="fill:#f9f9f9"
       r="7.4000001"
       cy="134.60001"
       cx="132.5"
       class="st0"
       id="XMLID_4_" /><path
       style="fill:#f9f9f9"
       d="m 250.8,94.7 c -4.7,0 -8.5,3.8 -8.5,8.5 v 40.5 L 209.1,99.9 c -2.4,-3 -4.7,-5.1 -8.9,-5.1 h -1.8 c -4.8,0 -8.8,3.9 -8.8,8.7 V 166 c 0,4.7 4,8.5 8.7,8.5 4.7,0 8.7,-3.8 8.7,-8.5 v -42 l 34.5,45.4 c 2.4,3 4.7,5.1 8.9,5.1 h 0.6 c 4.8,0 8.5,-3.9 8.5,-8.8 v -62.5 c -0.1,-4.7 -3.9,-8.5 -8.7,-8.5 z"
       class="st0"
       id="XMLID_3_" /></g></svg>